<svg xmlns="http://www.w3.org/2000/svg" viewBox="0 0 512 512">
<!-- Glitch, the Trimmy mascot: a 10x10 pixel ghost with a magenta/cyan split behind it. -->
<rect width="512" height="512" rx="112" fill="#0a0d0e"/>
<g shape-rendering="crispEdges">
  <rect x="176" y="86" width="34" height="34" fill="#ff2bd6"/>
  <rect x="210" y="86" width="34" height="34" fill="#ff2bd6"/>
  <rect x="244" y="86" width="34" height="34" fill="#ff2bd6"/>
  <rect x="278" y="86" width="34" height="34" fill="#ff2bd6"/>
  <rect x="108" y="120" width="34" height="34" fill="#ff2bd6"/>
  <rect x="142" y="120" width="34" height="34" fill="#ff2bd6"/>
  <rect x="176" y="120" width="34" height="34" fill="#ff2bd6"/>
  <rect x="210" y="120" width="34" height="34" fill="#ff2bd6"/>
  <rect x="244" y="120" width="34" height="34" fill="#ff2bd6"/>
  <rect x="278" y="120" width="34" height="34" fill="#ff2bd6"/>
  <rect x="312" y="120" width="34" height="34" fill="#ff2bd6"/>
  <rect x="346" y="120" width="34" height="34" fill="#ff2bd6"/>
  <rect x="74" y="154" width="34" height="34" fill="#ff2bd6"/>
  <rect x="108" y="154" width="34" height="34" fill="#ff2bd6"/>
  <rect x="142" y="154" width="34" height="34" fill="#ff2bd6"/>
  <rect x="176" y="154" width="34" height="34" fill="#ff2bd6"/>
  <rect x="210" y="154" width="34" height="34" fill="#ff2bd6"/>
  <rect x="244" y="154" width="34" height="34" fill="#ff2bd6"/>
  <rect x="278" y="154" width="34" height="34" fill="#ff2bd6"/>
  <rect x="312" y="154" width="34" height="34" fill="#ff2bd6"/>
  <rect x="346" y="154" width="34" height="34" fill="#ff2bd6"/>
  <rect x="380" y="154" width="34" height="34" fill="#ff2bd6"/>
  <rect x="74" y="188" width="34" height="34" fill="#ff2bd6"/>
  <rect x="108" y="188" width="34" height="34" fill="#ff2bd6"/>
  <rect x="142" y="188" width="34" height="34" fill="#ff2bd6"/>
  <rect x="176" y="188" width="34" height="34" fill="#ff2bd6"/>
  <rect x="210" y="188" width="34" height="34" fill="#ff2bd6"/>
  <rect x="244" y="188" width="34" height="34" fill="#ff2bd6"/>
  <rect x="278" y="188" width="34" height="34" fill="#ff2bd6"/>
  <rect x="312" y="188" width="34" height="34" fill="#ff2bd6"/>
  <rect x="346" y="188" width="34" height="34" fill="#ff2bd6"/>
  <rect x="380" y="188" width="34" height="34" fill="#ff2bd6"/>
  <rect x="74" y="222" width="34" height="34" fill="#ff2bd6"/>
  <rect x="108" y="222" width="34" height="34" fill="#ff2bd6"/>
  <rect x="142" y="222" width="34" height="34" fill="#ff2bd6"/>
  <rect x="176" y="222" width="34" height="34" fill="#ff2bd6"/>
  <rect x="210" y="222" width="34" height="34" fill="#ff2bd6"/>
  <rect x="244" y="222" width="34" height="34" fill="#ff2bd6"/>
  <rect x="278" y="222" width="34" height="34" fill="#ff2bd6"/>
  <rect x="312" y="222" width="34" height="34" fill="#ff2bd6"/>
  <rect x="346" y="222" width="34" height="34" fill="#ff2bd6"/>
  <rect x="380" y="222" width="34" height="34" fill="#ff2bd6"/>
  <rect x="74" y="256" width="34" height="34" fill="#ff2bd6"/>
  <rect x="108" y="256" width="34" height="34" fill="#ff2bd6"/>
  <rect x="142" y="256" width="34" height="34" fill="#ff2bd6"/>
  <rect x="176" y="256" width="34" height="34" fill="#ff2bd6"/>
  <rect x="210" y="256" width="34" height="34" fill="#ff2bd6"/>
  <rect x="244" y="256" width="34" height="34" fill="#ff2bd6"/>
  <rect x="278" y="256" width="34" height="34" fill="#ff2bd6"/>
  <rect x="312" y="256" width="34" height="34" fill="#ff2bd6"/>
  <rect x="346" y="256" width="34" height="34" fill="#ff2bd6"/>
  <rect x="380" y="256" width="34" height="34" fill="#ff2bd6"/>
  <rect x="74" y="290" width="34" height="34" fill="#ff2bd6"/>
  <rect x="108" y="290" width="34" height="34" fill="#ff2bd6"/>
  <rect x="142" y="290" width="34" height="34" fill="#ff2bd6"/>
  <rect x="176" y="290" width="34" height="34" fill="#ff2bd6"/>
  <rect x="210" y="290" width="34" height="34" fill="#ff2bd6"/>
  <rect x="244" y="290" width="34" height="34" fill="#ff2bd6"/>
  <rect x="278" y="290" width="34" height="34" fill="#ff2bd6"/>
  <rect x="312" y="290" width="34" height="34" fill="#ff2bd6"/>
  <rect x="346" y="290" width="34" height="34" fill="#ff2bd6"/>
  <rect x="380" y="290" width="34" height="34" fill="#ff2bd6"/>
  <rect x="74" y="324" width="34" height="34" fill="#ff2bd6"/>
  <rect x="108" y="324" width="34" height="34" fill="#ff2bd6"/>
  <rect x="142" y="324" width="34" height="34" fill="#ff2bd6"/>
  <rect x="176" y="324" width="34" height="34" fill="#ff2bd6"/>
  <rect x="210" y="324" width="34" height="34" fill="#ff2bd6"/>
  <rect x="244" y="324" width="34" height="34" fill="#ff2bd6"/>
  <rect x="278" y="324" width="34" height="34" fill="#ff2bd6"/>
  <rect x="312" y="324" width="34" height="34" fill="#ff2bd6"/>
  <rect x="346" y="324" width="34" height="34" fill="#ff2bd6"/>
  <rect x="380" y="324" width="34" height="34" fill="#ff2bd6"/>
  <rect x="74" y="358" width="34" height="34" fill="#ff2bd6"/>
  <rect x="108" y="358" width="34" height="34" fill="#ff2bd6"/>
  <rect x="142" y="358" width="34" height="34" fill="#ff2bd6"/>
  <rect x="176" y="358" width="34" height="34" fill="#ff2bd6"/>
  <rect x="210" y="358" width="34" height="34" fill="#ff2bd6"/>
  <rect x="244" y="358" width="34" height="34" fill="#ff2bd6"/>
  <rect x="278" y="358" width="34" height="34" fill="#ff2bd6"/>
  <rect x="312" y="358" width="34" height="34" fill="#ff2bd6"/>
  <rect x="346" y="358" width="34" height="34" fill="#ff2bd6"/>
  <rect x="380" y="358" width="34" height="34" fill="#ff2bd6"/>
  <rect x="74" y="392" width="34" height="34" fill="#ff2bd6"/>
  <rect x="142" y="392" width="34" height="34" fill="#ff2bd6"/>
  <rect x="176" y="392" width="34" height="34" fill="#ff2bd6"/>
  <rect x="278" y="392" width="34" height="34" fill="#ff2bd6"/>
  <rect x="312" y="392" width="34" height="34" fill="#ff2bd6"/>
  <rect x="380" y="392" width="34" height="34" fill="#ff2bd6"/>
  <rect x="200" y="86" width="34" height="34" fill="#00e5ff"/>
  <rect x="234" y="86" width="34" height="34" fill="#00e5ff"/>
  <rect x="268" y="86" width="34" height="34" fill="#00e5ff"/>
  <rect x="302" y="86" width="34" height="34" fill="#00e5ff"/>
  <rect x="132" y="120" width="34" height="34" fill="#00e5ff"/>
  <rect x="166" y="120" width="34" height="34" fill="#00e5ff"/>
  <rect x="200" y="120" width="34" height="34" fill="#00e5ff"/>
  <rect x="234" y="120" width="34" height="34" fill="#00e5ff"/>
  <rect x="268" y="120" width="34" height="34" fill="#00e5ff"/>
  <rect x="302" y="120" width="34" height="34" fill="#00e5ff"/>
  <rect x="336" y="120" width="34" height="34" fill="#00e5ff"/>
  <rect x="370" y="120" width="34" height="34" fill="#00e5ff"/>
  <rect x="98" y="154" width="34" height="34" fill="#00e5ff"/>
  <rect x="132" y="154" width="34" height="34" fill="#00e5ff"/>
  <rect x="166" y="154" width="34" height="34" fill="#00e5ff"/>
  <rect x="200" y="154" width="34" height="34" fill="#00e5ff"/>
  <rect x="234" y="154" width="34" height="34" fill="#00e5ff"/>
  <rect x="268" y="154" width="34" height="34" fill="#00e5ff"/>
  <rect x="302" y="154" width="34" height="34" fill="#00e5ff"/>
  <rect x="336" y="154" width="34" height="34" fill="#00e5ff"/>
  <rect x="370" y="154" width="34" height="34" fill="#00e5ff"/>
  <rect x="404" y="154" width="34" height="34" fill="#00e5ff"/>
  <rect x="98" y="188" width="34" height="34" fill="#00e5ff"/>
  <rect x="132" y="188" width="34" height="34" fill="#00e5ff"/>
  <rect x="166" y="188" width="34" height="34" fill="#00e5ff"/>
  <rect x="200" y="188" width="34" height="34" fill="#00e5ff"/>
  <rect x="234" y="188" width="34" height="34" fill="#00e5ff"/>
  <rect x="268" y="188" width="34" height="34" fill="#00e5ff"/>
  <rect x="302" y="188" width="34" height="34" fill="#00e5ff"/>
  <rect x="336" y="188" width="34" height="34" fill="#00e5ff"/>
  <rect x="370" y="188" width="34" height="34" fill="#00e5ff"/>
  <rect x="404" y="188" width="34" height="34" fill="#00e5ff"/>
  <rect x="98" y="222" width="34" height="34" fill="#00e5ff"/>
  <rect x="132" y="222" width="34" height="34" fill="#00e5ff"/>
  <rect x="166" y="222" width="34" height="34" fill="#00e5ff"/>
  <rect x="200" y="222" width="34" height="34" fill="#00e5ff"/>
  <rect x="234" y="222" width="34" height="34" fill="#00e5ff"/>
  <rect x="268" y="222" width="34" height="34" fill="#00e5ff"/>
  <rect x="302" y="222" width="34" height="34" fill="#00e5ff"/>
  <rect x="336" y="222" width="34" height="34" fill="#00e5ff"/>
  <rect x="370" y="222" width="34" height="34" fill="#00e5ff"/>
  <rect x="404" y="222" width="34" height="34" fill="#00e5ff"/>
  <rect x="98" y="256" width="34" height="34" fill="#00e5ff"/>
  <rect x="132" y="256" width="34" height="34" fill="#00e5ff"/>
  <rect x="166" y="256" width="34" height="34" fill="#00e5ff"/>
  <rect x="200" y="256" width="34" height="34" fill="#00e5ff"/>
  <rect x="234" y="256" width="34" height="34" fill="#00e5ff"/>
  <rect x="268" y="256" width="34" height="34" fill="#00e5ff"/>
  <rect x="302" y="256" width="34" height="34" fill="#00e5ff"/>
  <rect x="336" y="256" width="34" height="34" fill="#00e5ff"/>
  <rect x="370" y="256" width="34" height="34" fill="#00e5ff"/>
  <rect x="404" y="256" width="34" height="34" fill="#00e5ff"/>
  <rect x="98" y="290" width="34" height="34" fill="#00e5ff"/>
  <rect x="132" y="290" width="34" height="34" fill="#00e5ff"/>
  <rect x="166" y="290" width="34" height="34" fill="#00e5ff"/>
  <rect x="200" y="290" width="34" height="34" fill="#00e5ff"/>
  <rect x="234" y="290" width="34" height="34" fill="#00e5ff"/>
  <rect x="268" y="290" width="34" height="34" fill="#00e5ff"/>
  <rect x="302" y="290" width="34" height="34" fill="#00e5ff"/>
  <rect x="336" y="290" width="34" height="34" fill="#00e5ff"/>
  <rect x="370" y="290" width="34" height="34" fill="#00e5ff"/>
  <rect x="404" y="290" width="34" height="34" fill="#00e5ff"/>
  <rect x="98" y="324" width="34" height="34" fill="#00e5ff"/>
  <rect x="132" y="324" width="34" height="34" fill="#00e5ff"/>
  <rect x="166" y="324" width="34" height="34" fill="#00e5ff"/>
  <rect x="200" y="324" width="34" height="34" fill="#00e5ff"/>
  <rect x="234" y="324" width="34" height="34" fill="#00e5ff"/>
  <rect x="268" y="324" width="34" height="34" fill="#00e5ff"/>
  <rect x="302" y="324" width="34" height="34" fill="#00e5ff"/>
  <rect x="336" y="324" width="34" height="34" fill="#00e5ff"/>
  <rect x="370" y="324" width="34" height="34" fill="#00e5ff"/>
  <rect x="404" y="324" width="34" height="34" fill="#00e5ff"/>
  <rect x="98" y="358" width="34" height="34" fill="#00e5ff"/>
  <rect x="132" y="358" width="34" height="34" fill="#00e5ff"/>
  <rect x="166" y="358" width="34" height="34" fill="#00e5ff"/>
  <rect x="200" y="358" width="34" height="34" fill="#00e5ff"/>
  <rect x="234" y="358" width="34" height="34" fill="#00e5ff"/>
  <rect x="268" y="358" width="34" height="34" fill="#00e5ff"/>
  <rect x="302" y="358" width="34" height="34" fill="#00e5ff"/>
  <rect x="336" y="358" width="34" height="34" fill="#00e5ff"/>
  <rect x="370" y="358" width="34" height="34" fill="#00e5ff"/>
  <rect x="404" y="358" width="34" height="34" fill="#00e5ff"/>
  <rect x="98" y="392" width="34" height="34" fill="#00e5ff"/>
  <rect x="166" y="392" width="34" height="34" fill="#00e5ff"/>
  <rect x="200" y="392" width="34" height="34" fill="#00e5ff"/>
  <rect x="302" y="392" width="34" height="34" fill="#00e5ff"/>
  <rect x="336" y="392" width="34" height="34" fill="#00e5ff"/>
  <rect x="404" y="392" width="34" height="34" fill="#00e5ff"/>
  <rect x="188" y="86" width="34" height="34" fill="#53fc18"/>
  <rect x="222" y="86" width="34" height="34" fill="#53fc18"/>
  <rect x="256" y="86" width="34" height="34" fill="#53fc18"/>
  <rect x="290" y="86" width="34" height="34" fill="#53fc18"/>
  <rect x="120" y="120" width="34" height="34" fill="#53fc18"/>
  <rect x="154" y="120" width="34" height="34" fill="#53fc18"/>
  <rect x="188" y="120" width="34" height="34" fill="#53fc18"/>
  <rect x="222" y="120" width="34" height="34" fill="#53fc18"/>
  <rect x="256" y="120" width="34" height="34" fill="#53fc18"/>
  <rect x="290" y="120" width="34" height="34" fill="#53fc18"/>
  <rect x="324" y="120" width="34" height="34" fill="#53fc18"/>
  <rect x="358" y="120" width="34" height="34" fill="#53fc18"/>
  <rect x="86" y="154" width="34" height="34" fill="#53fc18"/>
  <rect x="120" y="154" width="34" height="34" fill="#53fc18"/>
  <rect x="154" y="154" width="34" height="34" fill="#53fc18"/>
  <rect x="188" y="154" width="34" height="34" fill="#53fc18"/>
  <rect x="222" y="154" width="34" height="34" fill="#53fc18"/>
  <rect x="256" y="154" width="34" height="34" fill="#53fc18"/>
  <rect x="290" y="154" width="34" height="34" fill="#53fc18"/>
  <rect x="324" y="154" width="34" height="34" fill="#53fc18"/>
  <rect x="358" y="154" width="34" height="34" fill="#53fc18"/>
  <rect x="392" y="154" width="34" height="34" fill="#53fc18"/>
  <rect x="86" y="188" width="34" height="34" fill="#53fc18"/>
  <rect x="120" y="188" width="34" height="34" fill="#53fc18"/>
  <rect x="154" y="188" width="34" height="34" fill="#fff"/>
  <rect x="188" y="188" width="34" height="34" fill="#fff"/>
  <rect x="222" y="188" width="34" height="34" fill="#53fc18"/>
  <rect x="256" y="188" width="34" height="34" fill="#53fc18"/>
  <rect x="290" y="188" width="34" height="34" fill="#fff"/>
  <rect x="324" y="188" width="34" height="34" fill="#fff"/>
  <rect x="358" y="188" width="34" height="34" fill="#53fc18"/>
  <rect x="392" y="188" width="34" height="34" fill="#53fc18"/>
  <rect x="86" y="222" width="34" height="34" fill="#53fc18"/>
  <rect x="120" y="222" width="34" height="34" fill="#53fc18"/>
  <rect x="154" y="222" width="34" height="34" fill="#fff"/>
  <rect x="188" y="222" width="34" height="34" fill="#041000"/>
  <rect x="222" y="222" width="34" height="34" fill="#53fc18"/>
  <rect x="256" y="222" width="34" height="34" fill="#53fc18"/>
  <rect x="290" y="222" width="34" height="34" fill="#fff"/>
  <rect x="324" y="222" width="34" height="34" fill="#041000"/>
  <rect x="358" y="222" width="34" height="34" fill="#53fc18"/>
  <rect x="392" y="222" width="34" height="34" fill="#53fc18"/>
  <rect x="86" y="256" width="34" height="34" fill="#53fc18"/>
  <rect x="120" y="256" width="34" height="34" fill="#53fc18"/>
  <rect x="154" y="256" width="34" height="34" fill="#53fc18"/>
  <rect x="188" y="256" width="34" height="34" fill="#53fc18"/>
  <rect x="222" y="256" width="34" height="34" fill="#53fc18"/>
  <rect x="256" y="256" width="34" height="34" fill="#53fc18"/>
  <rect x="290" y="256" width="34" height="34" fill="#53fc18"/>
  <rect x="324" y="256" width="34" height="34" fill="#53fc18"/>
  <rect x="358" y="256" width="34" height="34" fill="#53fc18"/>
  <rect x="392" y="256" width="34" height="34" fill="#53fc18"/>
  <rect x="86" y="290" width="34" height="34" fill="#53fc18"/>
  <rect x="120" y="290" width="34" height="34" fill="#53fc18"/>
  <rect x="154" y="290" width="34" height="34" fill="#53fc18"/>
  <rect x="188" y="290" width="34" height="34" fill="#53fc18"/>
  <rect x="222" y="290" width="34" height="34" fill="#53fc18"/>
  <rect x="256" y="290" width="34" height="34" fill="#53fc18"/>
  <rect x="290" y="290" width="34" height="34" fill="#53fc18"/>
  <rect x="324" y="290" width="34" height="34" fill="#53fc18"/>
  <rect x="358" y="290" width="34" height="34" fill="#53fc18"/>
  <rect x="392" y="290" width="34" height="34" fill="#53fc18"/>
  <rect x="86" y="324" width="34" height="34" fill="#53fc18"/>
  <rect x="120" y="324" width="34" height="34" fill="#53fc18"/>
  <rect x="154" y="324" width="34" height="34" fill="#53fc18"/>
  <rect x="188" y="324" width="34" height="34" fill="#53fc18"/>
  <rect x="222" y="324" width="34" height="34" fill="#53fc18"/>
  <rect x="256" y="324" width="34" height="34" fill="#53fc18"/>
  <rect x="290" y="324" width="34" height="34" fill="#53fc18"/>
  <rect x="324" y="324" width="34" height="34" fill="#53fc18"/>
  <rect x="358" y="324" width="34" height="34" fill="#53fc18"/>
  <rect x="392" y="324" width="34" height="34" fill="#53fc18"/>
  <rect x="86" y="358" width="34" height="34" fill="#53fc18"/>
  <rect x="120" y="358" width="34" height="34" fill="#53fc18"/>
  <rect x="154" y="358" width="34" height="34" fill="#53fc18"/>
  <rect x="188" y="358" width="34" height="34" fill="#53fc18"/>
  <rect x="222" y="358" width="34" height="34" fill="#53fc18"/>
  <rect x="256" y="358" width="34" height="34" fill="#53fc18"/>
  <rect x="290" y="358" width="34" height="34" fill="#53fc18"/>
  <rect x="324" y="358" width="34" height="34" fill="#53fc18"/>
  <rect x="358" y="358" width="34" height="34" fill="#53fc18"/>
  <rect x="392" y="358" width="34" height="34" fill="#53fc18"/>
  <rect x="86" y="392" width="34" height="34" fill="#53fc18"/>
  <rect x="154" y="392" width="34" height="34" fill="#53fc18"/>
  <rect x="188" y="392" width="34" height="34" fill="#53fc18"/>
  <rect x="290" y="392" width="34" height="34" fill="#53fc18"/>
  <rect x="324" y="392" width="34" height="34" fill="#53fc18"/>
  <rect x="392" y="392" width="34" height="34" fill="#53fc18"/>
</g>
</svg>
